<mxfile host="app.diagrams.net" modified="2024-01-25T10:46:54.701Z" agent="Mozilla/5.0 (Windows NT 10.0; Win64; x64; rv:121.0) Gecko/20100101 Firefox/121.0" etag="USf3DUrAcS_MPbbdU4I2" version="23.0.1" type="device">
  <diagram name="Page-1" id="PBgIyK6pe3advxaZTvaH">
    <mxGraphModel dx="1194" dy="739" grid="1" gridSize="10" guides="1" tooltips="1" connect="1" arrows="1" fold="1" page="1" pageScale="1" pageWidth="827" pageHeight="1169" math="0" shadow="0">
      <root>
        <mxCell id="0" />
        <mxCell id="1" parent="0" />
        <mxCell id="SYidmmIBxToOsYOBwl0n-1" value="" style="rounded=0;whiteSpace=wrap;html=1;" parent="1" vertex="1">
          <mxGeometry x="370" y="40" width="330" height="330" as="geometry" />
        </mxCell>
        <mxCell id="SYidmmIBxToOsYOBwl0n-2" value="Sistema" style="text;html=1;strokeColor=none;fillColor=none;align=center;verticalAlign=middle;whiteSpace=wrap;rounded=0;" parent="1" vertex="1">
          <mxGeometry x="505" y="60" width="60" height="30" as="geometry" />
        </mxCell>
        <mxCell id="SYidmmIBxToOsYOBwl0n-3" value="Administrador" style="shape=umlActor;verticalLabelPosition=bottom;verticalAlign=top;html=1;outlineConnect=0;" parent="1" vertex="1">
          <mxGeometry x="120" y="80" width="120" height="210" as="geometry" />
        </mxCell>
        <mxCell id="SYidmmIBxToOsYOBwl0n-4" value="Exportar datos de un jugador" style="ellipse;whiteSpace=wrap;html=1;" parent="1" vertex="1">
          <mxGeometry x="550" y="90" width="120" height="80" as="geometry" />
        </mxCell>
        <mxCell id="SYidmmIBxToOsYOBwl0n-5" value="" style="endArrow=none;html=1;rounded=0;entryX=0;entryY=0.5;entryDx=0;entryDy=0;exitX=0.75;exitY=0.1;exitDx=0;exitDy=0;exitPerimeter=0;" parent="1" source="SYidmmIBxToOsYOBwl0n-3" target="SYidmmIBxToOsYOBwl0n-4" edge="1">
          <mxGeometry width="50" height="50" relative="1" as="geometry">
            <mxPoint x="260" y="70" as="sourcePoint" />
            <mxPoint x="440" y="380" as="targetPoint" />
          </mxGeometry>
        </mxCell>
        <mxCell id="Ate0QM4TKXNm-LgP30Jo-1" value="Exportar datos de una imagen" style="ellipse;whiteSpace=wrap;html=1;" vertex="1" parent="1">
          <mxGeometry x="445" y="165" width="135" height="95" as="geometry" />
        </mxCell>
        <mxCell id="Ate0QM4TKXNm-LgP30Jo-2" value="Exportar datos del modo de juego en solitario en un rango de fechas" style="ellipse;whiteSpace=wrap;html=1;" vertex="1" parent="1">
          <mxGeometry x="411" y="270" width="169" height="90" as="geometry" />
        </mxCell>
        <mxCell id="Ate0QM4TKXNm-LgP30Jo-3" value="" style="endArrow=none;html=1;rounded=0;exitX=0.75;exitY=0.1;exitDx=0;exitDy=0;exitPerimeter=0;" edge="1" parent="1" source="SYidmmIBxToOsYOBwl0n-3" target="Ate0QM4TKXNm-LgP30Jo-1">
          <mxGeometry width="50" height="50" relative="1" as="geometry">
            <mxPoint x="390" y="410" as="sourcePoint" />
            <mxPoint x="440" y="360" as="targetPoint" />
          </mxGeometry>
        </mxCell>
        <mxCell id="Ate0QM4TKXNm-LgP30Jo-4" value="" style="endArrow=none;html=1;rounded=0;" edge="1" parent="1" target="Ate0QM4TKXNm-LgP30Jo-2">
          <mxGeometry width="50" height="50" relative="1" as="geometry">
            <mxPoint x="210" y="100" as="sourcePoint" />
            <mxPoint x="440" y="360" as="targetPoint" />
          </mxGeometry>
        </mxCell>
      </root>
    </mxGraphModel>
  </diagram>
</mxfile>
